<svg width="24" height="24" viewBox="0 0 24 24" fill="none" xmlns="http://www.w3.org/2000/svg">
<path d="M9.27083 0.875C11.4975 0.875 13.6331 1.75956 15.2076 3.33408C16.7821 4.90861 17.6667 7.04412 17.6667 9.27083C17.6667 11.3504 16.9046 13.2621 15.6517 14.7346L16.0004 15.0833H17.0208L23.4792 21.5417L21.5417 23.4792L15.0833 17.0208V16.0004L14.7346 15.6517C13.2621 16.9046 11.3504 17.6667 9.27083 17.6667C7.04412 17.6667 4.90861 16.7821 3.33408 15.2076C1.75956 13.6331 0.875 11.4975 0.875 9.27083C0.875 7.04412 1.75956 4.90861 3.33408 3.33408C4.90861 1.75956 7.04412 0.875 9.27083 0.875ZM9.27083 3.45833C6.04167 3.45833 3.45833 6.04167 3.45833 9.27083C3.45833 12.5 6.04167 15.0833 9.27083 15.0833C12.5 15.0833 15.0833 12.5 15.0833 9.27083C15.0833 6.04167 12.5 3.45833 9.27083 3.45833Z" fill="white" fill-opacity="0.42"/>
</svg>
