<svg width="23" height="24" viewBox="0 0 23 24" fill="none" xmlns="http://www.w3.org/2000/svg">
<path d="M11.4885 0.117676C5.1405 0.117676 0 5.26968 0 11.6177C0 17.9657 5.1405 23.1177 11.4885 23.1177C17.848 23.1177 23 17.9657 23 11.6177C23 5.26968 17.848 0.117676 11.4885 0.117676ZM11.5 20.8177C6.417 20.8177 2.3 16.7007 2.3 11.6177C2.3 6.53468 6.417 2.41768 11.5 2.41768C16.583 2.41768 20.7 6.53468 20.7 11.6177C20.7 16.7007 16.583 20.8177 11.5 20.8177Z" fill="#ACACAC"/>
<path d="M12.075 5.86768H10.35V12.7677L16.3875 16.3902L17.25 14.9757L12.075 11.9052V5.86768Z" fill="#ACACAC"/>
</svg>
