<svg width="135" height="59" viewBox="0 0 135 59" fill="none" xmlns="http://www.w3.org/2000/svg">
<g clip-path="url(#clip0_1_720)">
<path d="M91.0081 35.6847C89.3813 36.961 88.1567 38.0197 86.8324 38.9345C84.7704 40.362 82.5535 40.5501 80.3034 39.3734C78.1603 38.2557 76.9872 36.4188 76.9725 34.0322C76.9172 24.9542 76.954 15.8726 76.9282 6.79469C76.9282 6.03481 77.1975 5.87989 77.8947 5.89464C79.8755 5.9389 81.86 5.97948 83.8372 5.88357C85.0139 5.82455 85.3791 6.09014 85.3717 7.36275C85.3053 16.0718 85.3348 24.7846 85.3348 33.4936C85.3348 34.9543 86.0885 35.6847 87.596 35.6847C88.5919 35.6847 89.5916 35.6847 91.0081 35.6847Z" fill="white"/>
<path d="M118.95 35.9282C115.055 40.0854 108.629 41.3027 103.646 38.9714C97.976 36.3192 94.9218 30.9226 95.5858 24.7366C96.2018 19.0191 100.602 14.3345 106.726 13.0508C102.864 17.9457 102.015 23.2316 104.837 28.6614C107.7 34.1761 112.591 36.3819 118.946 35.9245L118.95 35.9282Z" fill="white"/>
<path d="M75.722 13.6888C70.2627 16.1049 67.0535 20.0814 66.8469 25.9391C66.6182 32.28 69.8459 36.6253 75.5486 39.2627C72.037 41.0812 65.3678 39.9414 61.5463 35.5998C57.4075 30.8967 56.8985 24.1832 60.3069 19.1039C63.6968 14.054 70.0229 11.7855 75.7257 13.6888H75.722Z" fill="white"/>
<path d="M28.8164 12.9843C31.8448 12.9843 34.652 13.0101 37.4591 12.9658C38.1673 12.9547 38.396 13.3384 38.6542 13.8548C41.3949 19.3104 44.1504 24.7623 46.9096 30.2106C47.1051 30.5979 47.2157 30.9262 46.9907 31.3651C45.5226 34.2165 44.0877 37.0863 42.5347 40.1516C37.9386 31.0479 33.4347 22.1249 28.8201 12.9806L28.8164 12.9843Z" fill="white"/>
<path d="M20.5979 51.4872C20.5979 50.2773 20.5315 49.2556 20.6163 48.2522C20.6975 47.2932 20.4061 47.0128 19.4175 47.0239C14.8103 47.0792 10.1994 47.0829 5.5922 47.0349C2.46786 47.0017 0.335778 44.8328 0.346845 41.8265C0.346845 40.9818 0.494393 40.1481 0.984993 39.4583C1.85553 38.2374 2.79984 37.0643 3.98392 35.5225C3.98392 37.0275 4.04663 38.1119 3.96548 39.1854C3.89539 40.0706 4.23106 40.2514 5.04996 40.244C9.65716 40.2108 14.2681 40.2625 18.8753 40.2182C21.1401 40.1961 22.8628 41.0998 23.796 43.1175C24.6961 45.0578 24.4379 46.9796 22.9882 48.6543C22.2136 49.5506 21.6234 50.6093 20.6016 51.4909L20.5979 51.4872Z" fill="white"/>
<path d="M11.1695 13.0913C6.89059 17.3776 7.17093 31.3099 11.3023 35.3158C6.30408 35.9945 0.627148 30.6053 0.30623 24.8767C-0.0368208 18.6944 5.29337 12.9105 11.1658 13.0913H11.1695Z" fill="white"/>
<path d="M13.2462 13.0432C18.2334 13.0653 24.7587 17.6615 24.2534 25.1016C23.8882 30.4872 18.5248 35.6255 13.2352 35.3821C17.61 30.6347 17.3776 17.0196 13.2462 13.0469V13.0432Z" fill="white"/>
<path d="M122.901 9.72357C118.338 6.97179 113.771 4.22 109.208 1.46822L109.256 1.19157C110.592 1.12886 111.923 1.06615 113.258 1.00344C119.935 0.686213 126.608 0.365294 133.285 0.0591307C133.616 0.0443758 134.026 -0.154815 134.288 0.254633C130.396 3.29414 126.623 6.4775 122.897 9.72357H122.901Z" fill="white"/>
<path d="M122.901 9.72333C126.626 6.48095 130.396 3.29759 134.292 0.254395C133.985 3.3271 133.015 6.25594 132.337 9.24749C131.167 14.3896 129.92 19.5132 128.611 25.0389C127.855 23.0691 127.206 21.4424 126.608 19.7935C125.387 16.4294 123.937 13.1501 122.904 9.71964L122.901 9.72333Z" fill="#EDC16A"/>
<path d="M4.84703 47.4664C4.84703 48.4107 4.92449 49.3624 4.82859 50.2993C4.71424 51.4133 5.02778 51.7896 6.22292 51.7601C9.62392 51.6715 13.0286 51.7711 16.4296 51.7011C17.4588 51.6789 17.7981 52.0367 17.8608 53.0032C18.0489 55.8177 16.1677 58.208 13.3753 58.4588C10.8117 58.6875 8.22958 58.7059 5.66593 58.4514C1.82228 58.0678 -0.110604 53.7409 2.10631 50.5686C2.86619 49.4804 3.73673 48.4661 4.55562 47.4185C4.65153 47.4369 4.75112 47.4517 4.84703 47.4701V47.4664Z" fill="white"/>
<path d="M109.503 13.0764C116.73 12.8182 121.72 19.6829 119.238 26.2488C119.017 26.8316 118.795 27.1341 118.094 27.1267C114.325 27.0898 110.558 27.1083 106.364 27.1083C107.91 25.8836 109.168 24.884 110.433 23.888C112.926 21.9183 113.321 20.3026 112.152 17.2668C111.554 15.7138 110.577 14.408 109.503 13.0764Z" fill="white"/>
<path d="M49.5138 21.4463C47.2342 21.4869 45.2829 19.5982 45.2202 17.2928C45.1574 14.9504 46.9612 13.0508 49.3146 12.9844C51.7012 12.918 53.6894 14.8103 53.7116 17.1674C53.7337 19.4212 51.7861 21.4057 49.5175 21.4463H49.5138Z" fill="white"/>
</g>
<defs>
<clipPath id="clip0_1_720">
<rect width="134" height="58.6358" fill="white" transform="translate(0.291504)"/>
</clipPath>
</defs>
</svg>
